<?xml version="1.0" standalone="no"?>
<!DOCTYPE svg PUBLIC "-//W3C//DTD SVG 20010904//EN"
 "http://www.w3.org/TR/2001/REC-SVG-20010904/DTD/svg10.dtd">
<svg version="1.0" xmlns="http://www.w3.org/2000/svg"
 width="16.000000pt" height="16.000000pt" viewBox="0 0 16.000000 16.000000"
 preserveAspectRatio="xMidYMid meet">
<metadata>
Created by potrace 1.11, written by Peter Selinger 2001-2013
</metadata>
<g transform="translate(0.000000,16.000000) scale(0.002139,-0.002139)"
fill="#000000" stroke="none">
<path d="M3669 7461 c-54 -26 -134 -110 -186 -196 -16 -27 -73 -147 -78 -165
-1 -3 -7 -18 -14 -35 -7 -16 -19 -49 -26 -73 l-13 -43 69 -109 c38 -60 69
-114 69 -119 0 -6 5 -11 10 -11 6 0 10 -4 10 -10 0 -5 14 -33 31 -62 54 -91
176 -339 207 -423 42 -110 45 -119 46 -125 1 -3 5 -11 9 -17 5 -7 6 -13 3 -13
-3 0 1 -19 10 -41 33 -95 36 -244 6 -312 -27 -61 -74 -95 -158 -112 -6 -2 -35
-6 -65 -9 -116 -14 -134 -16 -149 -19 -8 -2 -42 -9 -75 -16 -33 -7 -64 -17
-70 -21 -5 -4 -28 -13 -50 -20 -22 -7 -46 -19 -53 -27 -9 -8 -19 -10 -26 -5
-30 23 -225 90 -311 107 -57 12 -250 13 -310 2 -74 -13 -98 -13 -155 -3 -70
13 -239 15 -305 5 -75 -12 -192 -45 -226 -64 -14 -8 -29 -12 -33 -8 -3 3 -6 2
-6 -4 0 -9 -20 -18 -45 -22 -3 0 -45 -27 -93 -59 -95 -65 -173 -131 -242 -206
-25 -27 -58 -63 -73 -80 -78 -85 -255 -386 -314 -531 -73 -183 -144 -404 -157
-490 -2 -11 -5 -21 -6 -22 -3 -4 -4 -6 -18 -73 -6 -30 -14 -71 -17 -90 -3 -19
-8 -42 -10 -50 -5 -20 -16 -87 -20 -130 -2 -19 -6 -53 -10 -75 -7 -45 -12
-107 -20 -213 -2 -40 -7 -77 -10 -82 -3 -5 -1 -11 5 -15 6 -4 7 -13 1 -23 -8
-17 -7 -656 2 -742 3 -25 8 -76 11 -115 4 -38 9 -85 11 -103 3 -17 7 -49 10
-70 3 -20 10 -62 15 -92 5 -30 12 -72 15 -94 3 -21 7 -41 10 -45 2 -4 7 -30
11 -57 3 -27 8 -52 10 -56 3 -4 8 -26 13 -50 28 -133 115 -419 162 -533 7 -16
13 -32 14 -35 2 -6 11 -28 41 -100 29 -72 116 -247 167 -335 42 -73 175 -276
187 -285 4 -3 22 -25 41 -50 60 -79 263 -290 280 -290 3 0 19 -12 35 -26 45
-40 158 -112 242 -154 158 -79 314 -115 482 -111 64 1 115 6 115 11 0 1 86 12
100 12 17 0 90 -14 98 -19 13 -8 264 -2 287 7 3 1 8 2 11 2 3 -1 33 7 66 17
61 18 61 18 149 -6 110 -30 301 -38 410 -18 75 15 222 61 241 76 11 10 60 3
78 -11 10 -8 93 -35 155 -51 35 -9 163 -22 210 -22 47 0 178 15 219 25 6 2 87
-10 124 -18 33 -7 178 -6 238 1 137 18 296 75 432 156 39 24 74 46 77 49 3 3
32 25 65 49 76 56 266 247 324 326 25 33 50 65 56 70 20 19 217 337 220 355 1
3 19 41 42 85 53 104 173 395 175 425 0 3 9 28 19 55 11 28 31 93 45 145 14
52 28 102 30 110 9 33 64 287 69 315 2 17 7 48 10 70 3 22 8 51 11 65 4 22 11
77 19 160 1 14 3 25 4 25 1 0 4 34 7 75 3 41 7 93 10 115 11 85 14 755 4 755
-7 0 -7 6 -1 19 6 10 8 20 6 23 -3 2 -7 35 -11 74 -3 38 -7 85 -9 104 -1 19
-5 51 -9 70 -3 19 -8 53 -11 75 -7 54 -14 96 -31 185 -8 41 -17 86 -20 100 -3
14 -10 43 -16 65 -5 22 -12 47 -13 55 -2 8 -15 53 -30 100 -14 47 -27 92 -29
101 -20 82 -153 379 -218 488 -21 34 -38 65 -38 67 0 4 -91 135 -105 151 -5 6
-26 31 -45 55 -54 67 -169 178 -238 231 -117 89 -310 181 -403 192 -16 2 -34
7 -40 11 -21 13 -256 12 -325 -1 -38 -7 -78 -11 -89 -9 -100 17 -156 21 -257
19 -64 -1 -121 -6 -127 -10 -6 -3 -24 -8 -39 -10 -61 -9 -148 -38 -229 -78
l-52 -25 -22 57 c-11 31 -22 61 -24 66 -1 6 -5 17 -8 25 -3 8 -5 40 -6 70 0
87 -18 447 -26 515 -2 22 -7 72 -11 110 -12 134 -13 150 -19 185 -2 19 -7 58
-10 85 -6 50 -10 78 -20 125 -2 13 -7 42 -10 65 -3 22 -8 47 -10 55 -2 8 -7
31 -10 50 -9 55 -42 179 -65 245 -11 33 -22 67 -24 76 -8 32 -59 125 -95 171
-29 38 -99 91 -121 93 -3 0 -9 3 -15 6 -20 12 -104 6 -136 -10z"/>
</g>
</svg>
